<svg xmlns="http://www.w3.org/2000/svg" xmlns:xlink="http://www.w3.org/1999/xlink" contentStyleType="text/css" height="612px" preserveAspectRatio="none" style="width:448px;height:612px;background:#FFFFFF;" version="1.1" viewBox="0 0 448 612" width="448px" zoomAndPan="magnify"><defs/><g><!--cluster com.xulioxesus--><g id="cluster_com.xulioxesus"><path d="M16.5,4 L125.0756,4 A3.75,3.75 0 0 1 127.5756,6.5 L134.5756,29.0679 L438.5,29.0679 A2.5,2.5 0 0 1 441,31.5679 L441,572.5 A2.5,2.5 0 0 1 438.5,575 L16.5,575 A2.5,2.5 0 0 1 14,572.5 L14,6.5 A2.5,2.5 0 0 1 16.5,4 " fill="none" style="stroke:#000000;stroke-width:1.5;"/><line style="stroke:#000000;stroke-width:1.5;" x1="14" x2="134.5756" y1="29.0679" y2="29.0679"/><text fill="#000000" font-family="sans-serif" font-size="14" font-weight="bold" lengthAdjust="spacing" textLength="107.5756" x="18" y="20.9659">com.xulioxesus</text></g><!--class Persona--><a href="Persona.html" target="_top" title="Persona.html" xlink:actuate="onRequest" xlink:href="Persona.html" xlink:show="new" xlink:title="Persona.html" xlink:type="simple"><g id="elem_Persona"><rect codeLine="12" fill="#F1F1F1" height="162.4075" id="Persona" rx="2.5" ry="2.5" style="stroke:#181818;stroke-width:0.5;" width="183.1354" x="22.5" y="82"/><ellipse cx="82.9028" cy="98" fill="#ADD1B2" rx="11" ry="11" style="stroke:#181818;stroke-width:1.0;"/><path d="M85.8716,103.6406 Q85.2934,103.9375 84.6528,104.0781 Q84.0122,104.2344 83.3091,104.2344 Q80.8091,104.2344 79.4809,102.5938 Q78.1684,100.9375 78.1684,97.8125 Q78.1684,94.6875 79.4809,93.0313 Q80.8091,91.375 83.3091,91.375 Q84.0122,91.375 84.6528,91.5313 Q85.3091,91.6875 85.8716,91.9844 L85.8716,94.7031 Q85.2466,94.125 84.6528,93.8594 Q84.0591,93.5781 83.4341,93.5781 Q82.0903,93.5781 81.4028,94.6563 Q80.7153,95.7188 80.7153,97.8125 Q80.7153,99.9063 81.4028,100.9844 Q82.0903,102.0469 83.4341,102.0469 Q84.0591,102.0469 84.6528,101.7813 Q85.2466,101.5 85.8716,100.9219 L85.8716,103.6406 Z " fill="#000000"/><text fill="#000000" font-family="sans-serif" font-size="14" lengthAdjust="spacing" textLength="53.8298" x="103.4028" y="103.432">Persona</text><line style="stroke:#181818;stroke-width:0.5;" x1="23.5" x2="204.6354" y1="114" y2="114"/><line style="stroke:#181818;stroke-width:0.5;" x1="23.5" x2="204.6354" y1="122" y2="122"/><ellipse cx="33.5" cy="137.034" fill="#84BE84" rx="3" ry="3" style="stroke:#038048;stroke-width:1.0;"/><text fill="#000000" font-family="sans-serif" font-size="14" lengthAdjust="spacing" textLength="126.3355" x="42.5" y="140.9659">Persona(String, int)</text><ellipse cx="33.5" cy="156.1019" fill="#84BE84" rx="3" ry="3" style="stroke:#038048;stroke-width:1.0;"/><text fill="#000000" font-family="sans-serif" font-size="14" lengthAdjust="spacing" textLength="131.2355" x="42.5" y="160.0339">getNombre(): String</text><ellipse cx="33.5" cy="175.1698" fill="#84BE84" rx="3" ry="3" style="stroke:#038048;stroke-width:1.0;"/><text fill="#000000" font-family="sans-serif" font-size="14" lengthAdjust="spacing" textLength="157.1354" x="42.5" y="179.1018">setNombre(String): void</text><ellipse cx="33.5" cy="194.2377" fill="#84BE84" rx="3" ry="3" style="stroke:#038048;stroke-width:1.0;"/><text fill="#000000" font-family="sans-serif" font-size="14" lengthAdjust="spacing" textLength="87.5277" x="42.5" y="198.1697">getEdad(): int</text><ellipse cx="33.5" cy="213.3056" fill="#84BE84" rx="3" ry="3" style="stroke:#038048;stroke-width:1.0;"/><text fill="#000000" font-family="sans-serif" font-size="14" lengthAdjust="spacing" textLength="113.4276" x="42.5" y="217.2376">setEdad(int): void</text><ellipse cx="33.5" cy="232.3735" fill="#84BE84" rx="3" ry="3" style="stroke:#038048;stroke-width:1.0;"/><text fill="#000000" font-family="sans-serif" font-size="14" lengthAdjust="spacing" textLength="153.6354" x="42.5" y="236.3055">imprimirDetalles(): void</text></g></a><!--class Estudiante--><a href="Estudiante.html" target="_top" title="Estudiante.html" xlink:actuate="onRequest" xlink:href="Estudiante.html" xlink:show="new" xlink:title="Estudiante.html" xlink:type="simple"><g id="elem_Estudiante"><rect codeLine="21" fill="#F1F1F1" height="257.7471" id="Estudiante" rx="2.5" ry="2.5" style="stroke:#181818;stroke-width:0.5;" width="209.4833" x="223.5" y="34"/><ellipse cx="289.0548" cy="50" fill="#ADD1B2" rx="11" ry="11" style="stroke:#181818;stroke-width:1.0;"/><path d="M292.0235,55.6406 Q291.4454,55.9375 290.8048,56.0781 Q290.1641,56.2344 289.461,56.2344 Q286.961,56.2344 285.6329,54.5938 Q284.3204,52.9375 284.3204,49.8125 Q284.3204,46.6875 285.6329,45.0313 Q286.961,43.375 289.461,43.375 Q290.1641,43.375 290.8048,43.5313 Q291.461,43.6875 292.0235,43.9844 L292.0235,46.7031 Q291.3985,46.125 290.8048,45.8594 Q290.211,45.5781 289.586,45.5781 Q288.2423,45.5781 287.5548,46.6563 Q286.8673,47.7188 286.8673,49.8125 Q286.8673,51.9063 287.5548,52.9844 Q288.2423,54.0469 289.586,54.0469 Q290.211,54.0469 290.8048,53.7813 Q291.3985,53.5 292.0235,52.9219 L292.0235,55.6406 Z " fill="#000000"/><text fill="#000000" font-family="sans-serif" font-size="14" lengthAdjust="spacing" textLength="69.8737" x="309.5548" y="55.432">Estudiante</text><line style="stroke:#181818;stroke-width:0.5;" x1="224.5" x2="431.9833" y1="66" y2="66"/><line style="stroke:#181818;stroke-width:0.5;" x1="224.5" x2="431.9833" y1="74" y2="74"/><ellipse cx="234.5" cy="89.034" fill="#84BE84" rx="3" ry="3" style="stroke:#038048;stroke-width:1.0;"/><text fill="#000000" font-family="sans-serif" font-size="14" lengthAdjust="spacing" textLength="142.3795" x="243.5" y="92.9659">Estudiante(String, int)</text><ellipse cx="234.5" cy="108.1019" fill="#84BE84" rx="3" ry="3" style="stroke:#038048;stroke-width:1.0;"/><text fill="#000000" font-family="sans-serif" font-size="14" lengthAdjust="spacing" textLength="183.4833" x="243.5" y="112.0339">setCalificacion(double): void</text><ellipse cx="234.5" cy="127.1698" fill="#84BE84" rx="3" ry="3" style="stroke:#038048;stroke-width:1.0;"/><text fill="#000000" font-family="sans-serif" font-size="14" lengthAdjust="spacing" textLength="131.2355" x="243.5" y="131.1018">getNombre(): String</text><ellipse cx="234.5" cy="146.2377" fill="#84BE84" rx="3" ry="3" style="stroke:#038048;stroke-width:1.0;"/><text fill="#000000" font-family="sans-serif" font-size="14" lengthAdjust="spacing" textLength="157.1354" x="243.5" y="150.1697">setNombre(String): void</text><ellipse cx="234.5" cy="165.3056" fill="#84BE84" rx="3" ry="3" style="stroke:#038048;stroke-width:1.0;"/><text fill="#000000" font-family="sans-serif" font-size="14" lengthAdjust="spacing" textLength="87.5277" x="243.5" y="169.2376">getEdad(): int</text><ellipse cx="234.5" cy="184.3735" fill="#84BE84" rx="3" ry="3" style="stroke:#038048;stroke-width:1.0;"/><text fill="#000000" font-family="sans-serif" font-size="14" lengthAdjust="spacing" textLength="113.4276" x="243.5" y="188.3055">setEdad(int): void</text><ellipse cx="234.5" cy="203.4415" fill="#84BE84" rx="3" ry="3" style="stroke:#038048;stroke-width:1.0;"/><text fill="#000000" font-family="sans-serif" font-size="14" lengthAdjust="spacing" textLength="157.5834" x="243.5" y="207.3734">getCalificacion(): double</text><ellipse cx="234.5" cy="222.5094" fill="#84BE84" rx="3" ry="3" style="stroke:#038048;stroke-width:1.0;"/><text fill="#000000" font-family="sans-serif" font-size="14" lengthAdjust="spacing" textLength="117.1516" x="243.5" y="226.4414">aprobo(): boolean</text><ellipse cx="234.5" cy="241.5773" fill="#84BE84" rx="3" ry="3" style="stroke:#038048;stroke-width:1.0;"/><text fill="#000000" font-family="sans-serif" font-size="14" lengthAdjust="spacing" textLength="113.0076" x="243.5" y="245.5093">edadEscolar(): int</text><ellipse cx="234.5" cy="260.6452" fill="#84BE84" rx="3" ry="3" style="stroke:#038048;stroke-width:1.0;"/><text fill="#000000" font-family="sans-serif" font-size="14" lengthAdjust="spacing" textLength="168.3354" x="243.5" y="264.5772">esUniversitario(): boolean</text><ellipse cx="234.5" cy="279.7131" fill="#84BE84" rx="3" ry="3" style="stroke:#038048;stroke-width:1.0;"/><text fill="#000000" font-family="sans-serif" font-size="14" lengthAdjust="spacing" textLength="181.6493" x="243.5" y="283.6451">imprimirInformacion(): void</text></g></a><!--class Circulo--><a href="Circulo.html" target="_top" title="Circulo.html" xlink:actuate="onRequest" xlink:href="Circulo.html" xlink:show="new" xlink:title="Circulo.html" xlink:type="simple"><g id="elem_Circulo"><rect codeLine="35" fill="#F1F1F1" height="238.6792" id="Circulo" rx="2.5" ry="2.5" style="stroke:#181818;stroke-width:0.5;" width="235.4952" x="22.5" y="328"/><ellipse cx="113.1497" cy="344" fill="#ADD1B2" rx="11" ry="11" style="stroke:#181818;stroke-width:1.0;"/><path d="M116.1184,349.6406 Q115.5403,349.9375 114.8997,350.0781 Q114.259,350.2344 113.5559,350.2344 Q111.0559,350.2344 109.7278,348.5938 Q108.4153,346.9375 108.4153,343.8125 Q108.4153,340.6875 109.7278,339.0313 Q111.0559,337.375 113.5559,337.375 Q114.259,337.375 114.8997,337.5313 Q115.5559,337.6875 116.1184,337.9844 L116.1184,340.7031 Q115.4934,340.125 114.8997,339.8594 Q114.3059,339.5781 113.6809,339.5781 Q112.3372,339.5781 111.6497,340.6563 Q110.9622,341.7188 110.9622,343.8125 Q110.9622,345.9063 111.6497,346.9844 Q112.3372,348.0469 113.6809,348.0469 Q114.3059,348.0469 114.8997,347.7813 Q115.4934,347.5 116.1184,346.9219 L116.1184,349.6406 Z " fill="#000000"/><text fill="#000000" font-family="sans-serif" font-size="14" lengthAdjust="spacing" textLength="45.6958" x="133.6497" y="349.432">Circulo</text><line style="stroke:#181818;stroke-width:0.5;" x1="23.5" x2="256.9952" y1="360" y2="360"/><line style="stroke:#181818;stroke-width:0.5;" x1="23.5" x2="256.9952" y1="368" y2="368"/><ellipse cx="33.5" cy="383.034" fill="#84BE84" rx="3" ry="3" style="stroke:#038048;stroke-width:1.0;"/><text fill="#000000" font-family="sans-serif" font-size="14" lengthAdjust="spacing" textLength="149.3654" x="42.5" y="386.9659">Circulo(int, int, double)</text><ellipse cx="33.5" cy="402.1019" fill="#84BE84" rx="3" ry="3" style="stroke:#038048;stroke-width:1.0;"/><text fill="#000000" font-family="sans-serif" font-size="14" lengthAdjust="spacing" textLength="137.1435" x="42.5" y="406.0339">establecerX(int): void</text><ellipse cx="33.5" cy="421.1698" fill="#84BE84" rx="3" ry="3" style="stroke:#038048;stroke-width:1.0;"/><text fill="#000000" font-family="sans-serif" font-size="14" lengthAdjust="spacing" textLength="93.6736" x="42.5" y="425.1018">obtenerX(): int</text><ellipse cx="33.5" cy="440.2377" fill="#84BE84" rx="3" ry="3" style="stroke:#038048;stroke-width:1.0;"/><text fill="#000000" font-family="sans-serif" font-size="14" lengthAdjust="spacing" textLength="136.8635" x="42.5" y="444.1697">establecerY(int): void</text><ellipse cx="33.5" cy="459.3056" fill="#84BE84" rx="3" ry="3" style="stroke:#038048;stroke-width:1.0;"/><text fill="#000000" font-family="sans-serif" font-size="14" lengthAdjust="spacing" textLength="93.3936" x="42.5" y="463.2376">obtenerY(): int</text><ellipse cx="33.5" cy="478.3735" fill="#84BE84" rx="3" ry="3" style="stroke:#038048;stroke-width:1.0;"/><text fill="#000000" font-family="sans-serif" font-size="14" lengthAdjust="spacing" textLength="194.7253" x="42.5" y="482.3055">establecerRadio(double): void</text><ellipse cx="33.5" cy="497.4415" fill="#84BE84" rx="3" ry="3" style="stroke:#038048;stroke-width:1.0;"/><text fill="#000000" font-family="sans-serif" font-size="14" lengthAdjust="spacing" textLength="151.2554" x="42.5" y="501.3734">obtenerRadio(): double</text><ellipse cx="33.5" cy="516.5094" fill="#84BE84" rx="3" ry="3" style="stroke:#038048;stroke-width:1.0;"/><text fill="#000000" font-family="sans-serif" font-size="14" lengthAdjust="spacing" textLength="175.9793" x="42.5" y="520.4414">obtenerDiametro(): double</text><ellipse cx="33.5" cy="535.5773" fill="#84BE84" rx="3" ry="3" style="stroke:#038048;stroke-width:1.0;"/><text fill="#000000" font-family="sans-serif" font-size="14" lengthAdjust="spacing" textLength="209.4952" x="42.5" y="539.5093">obtenerCircunferencia(): double</text><ellipse cx="33.5" cy="554.6452" fill="#84BE84" rx="3" ry="3" style="stroke:#038048;stroke-width:1.0;"/><text fill="#000000" font-family="sans-serif" font-size="14" lengthAdjust="spacing" textLength="144.4794" x="42.5" y="558.5772">obtenerArea(): double</text></g></a><text fill="#888888" font-family="sans-serif" font-size="10" lengthAdjust="spacing" textLength="2.6" x="214.7" y="587.69">&#160;</text><a href="https://github.com/talsma-ict/umldoclet" target="_top" title="https://github.com/talsma-ict/umldoclet" xlink:actuate="onRequest" xlink:href="https://github.com/talsma-ict/umldoclet" xlink:show="new" xlink:title="https://github.com/talsma-ict/umldoclet" xlink:type="simple"><text fill="#888888" font-family="sans-serif" font-size="10" lengthAdjust="spacing" textLength="76.7199" x="177.64" y="601.31">UMLDoclet 2.2.1</text></a><!--SRC=[nLLDRzf04BttLqpLGq41OsX80geg8OBQLAIA4Y8beXp6zc1MMU-wk-iqgEf_x_WZ10Y4Otsnr_FspPitzYm0m4SOwdHfHBnmu3IuXR1mUpa6L174fCYWemX4WZ5P24Xg5TiII82PMsW3UbwiGcqCsLIhIAWOlkCZWjMP2Sbwxzv1aMhopFuRxHfxiCnVdkjGaeFQiBucgUEtJveTlzE52KgR85mC9rx5zhAdutMyDZ2t524fovIPYiWKiWOfXdmRbv46F9AnGYlUurSyUQcXLWw5if2YSJOlwKgYShdMjiVvZxrJg0rknflQ_5wXhG43ep2Bu5h_obRblayDngnOub9d3cn23XKM8SkQBN4gTEnVlrzkOA4FR3DhIRodJ0hzH3QpyAUCvbSeqLguuWgqGfXEgoTluH8vcp4IrgwZAbgxSOOxqW2XN7qJ4PFxePF0KAtUXnAs2R0hG1bbsACMqIkMKOHHpi4fNX4KiJpthhqYIOr8X3bdSwGaMzj6_TskVcHT5Wdk3R41Buiz7hm0th21HGvHYha8CUHFenRfB92qhzR_x5Yy9PP1fTvD6AP61pgF1bfBGhKP9aunig6MQ7Qg87khHF6hE3HYFyzp_oxKN9jafUZj5Ww52JEfkN_LqvxcLT7SYg9jZQhI-hPMX_ms97EtrpKTk7pStEqfzfdW_X31_G62QupOhJS-e8gdnEtfNOKv5yWpmno25IwfEHbIeS03u86XNP2gHTNjitLBILzMqRdMZgVfPdU-BLCoOw4UXbho4FjmjZjwcmzYAHJnx0yV577x_RMqHRhMMhugrqyrdIwSIss_rOg5MsI1nsEnvOf3e2b2ryeI6PNJV-iScCsgkVvrTS3aGxhfTvljuudVwtUx_UCJxwJNFltKwPxrZlnEt_Udeypeb5gN61aHpVu1]--></g></svg>